<svg id="Layer_1" data-name="Layer 1" xmlns="http://www.w3.org/2000/svg" viewBox="0 0 12.805 10.407">
  <defs>
    <style>
      .cls-1 {
        fill: #fff;
      }
    </style>
  </defs>
  <title>2cca7a22-05a3-4ee9-b420-0f6b75909828</title>
  <path class="cls-1" d="M8.865,0A2.632,2.632,0,0,0,6.306,3.226,7.463,7.463,0,0,1,.891.481,2.632,2.632,0,0,0,1.7,3.988,2.611,2.611,0,0,1,.514,3.66V3.693A2.629,2.629,0,0,0,2.622,6.269a2.638,2.638,0,0,1-.692.092,2.6,2.6,0,0,1-.495-0.047A2.63,2.63,0,0,0,3.889,8.138,5.269,5.269,0,0,1,.627,9.263,5.4,5.4,0,0,1,0,9.226a7.431,7.431,0,0,0,4.027,1.181A7.425,7.425,0,0,0,11.5,2.932c0-.114,0-0.227-0.008-0.34a5.332,5.332,0,0,0,1.311-1.36,5.261,5.261,0,0,1-1.509.414A2.63,2.63,0,0,0,12.451.192,5.264,5.264,0,0,1,10.783.83,2.622,2.622,0,0,0,8.865,0"/>
</svg>
